<svg xmlns="http://www.w3.org/2000/svg" xmlns:xlink="http://www.w3.org/1999/xlink" width="594" height="417.33"><defs><linearGradient id="b" x1="390.27" y1="53.7" x2="390.27" y2="239.99" gradientUnits="userSpaceOnUse"><stop offset=".05" stop-color="#00c1d5" stop-opacity="0"/><stop offset=".1" stop-color="#00c1d5" stop-opacity=".05"/><stop offset=".28" stop-color="#00c1d5" stop-opacity=".18"/><stop offset=".43" stop-color="#00c1d5" stop-opacity=".27"/><stop offset=".54" stop-color="#00c1d5" stop-opacity=".3"/><stop offset=".64" stop-color="#00c1d5" stop-opacity=".27"/><stop offset=".78" stop-color="#00c1d5" stop-opacity=".19"/><stop offset=".95" stop-color="#00c1d5" stop-opacity=".05"/><stop offset="1" stop-color="#00c1d5" stop-opacity="0"/></linearGradient><linearGradient id="c" x1="423.17" y1="97.42" x2="423.17" y2="294.69" gradientUnits="userSpaceOnUse"><stop offset=".09" stop-color="#0062b8" stop-opacity="0"/><stop offset=".54" stop-color="#0e8ae8" stop-opacity=".3"/><stop offset=".82" stop-color="#0673cc" stop-opacity=".12"/><stop offset="1" stop-color="#0062b8" stop-opacity="0"/></linearGradient><linearGradient id="d" x1="308.02" y1="321.69" x2="308.02" y2="275.68" gradientUnits="userSpaceOnUse"><stop offset="0" stop-color="#1c599e" stop-opacity="0"/><stop offset="1" stop-color="#1c599e" stop-opacity=".8"/></linearGradient><linearGradient id="e" x1="454.68" y1="274.69" x2="454.68" y2="347.44" gradientUnits="userSpaceOnUse"><stop offset="0" stop-color="#1c599e" stop-opacity=".8"/><stop offset="0" stop-color="#1c599e" stop-opacity=".76"/><stop offset="0" stop-color="#1c599e" stop-opacity=".75"/><stop offset=".08" stop-color="#1c599e" stop-opacity=".66"/><stop offset=".37" stop-color="#1c599e" stop-opacity=".38"/><stop offset=".64" stop-color="#1c599e" stop-opacity=".17"/><stop offset=".85" stop-color="#1c599e" stop-opacity=".05"/><stop offset="1" stop-color="#1c599e" stop-opacity="0"/></linearGradient><linearGradient id="f" x1="209.34" y1="341.69" x2="209.34" y2="281.49" gradientUnits="userSpaceOnUse"><stop offset="0" stop-color="#1c599e" stop-opacity="0"/><stop offset=".15" stop-color="#1c599e" stop-opacity=".05"/><stop offset=".36" stop-color="#1c599e" stop-opacity=".17"/><stop offset=".63" stop-color="#1c599e" stop-opacity=".38"/><stop offset=".92" stop-color="#1c599e" stop-opacity=".66"/><stop offset="1" stop-color="#1c599e" stop-opacity=".75"/><stop offset="1" stop-color="#1c599e" stop-opacity=".76"/><stop offset="1" stop-color="#1c599e" stop-opacity=".8"/></linearGradient><linearGradient id="g" x1="86.14" y1="178.4" x2="86.14" y2="216.12" gradientUnits="userSpaceOnUse"><stop offset=".3" stop-color="#00c1d5"/><stop offset=".6" stop-color="#00abd7"/><stop offset="1" stop-color="#0091da"/></linearGradient><linearGradient id="a" x1="105.34" y1="220.03" x2="105.34" y2="279.36" gradientUnits="userSpaceOnUse"><stop offset=".05" stop-color="#1f54aa"/><stop offset=".25" stop-color="#1c5baf"/><stop offset=".54" stop-color="#126ebe"/><stop offset=".89" stop-color="#028dd7"/><stop offset=".93" stop-color="#0091da"/></linearGradient><linearGradient id="h" x1="92.22" y1="220.03" x2="92.22" y2="279.36" xlink:href="#a"/><linearGradient id="i" x1="81.97" y1="332.69" x2="81.97" y2="398.78" gradientUnits="userSpaceOnUse"><stop offset=".11" stop-color="#0091da"/><stop offset=".2" stop-color="#0091da" stop-opacity=".97"/><stop offset=".33" stop-color="#0091da" stop-opacity=".88"/><stop offset=".48" stop-color="#0091da" stop-opacity=".74"/><stop offset=".64" stop-color="#0091da" stop-opacity=".54"/><stop offset=".82" stop-color="#0091da" stop-opacity=".29"/><stop offset="1" stop-color="#0091da" stop-opacity="0"/></linearGradient><linearGradient id="j" x1="56.03" y1="214.19" x2="56.03" y2="264.12" xlink:href="#a"/><linearGradient id="k" x1="41.17" y1="214.19" x2="41.17" y2="264.12" xlink:href="#a"/><linearGradient id="l" x1="40.67" y1="162.19" x2="40.67" y2="183.48" xlink:href="#a"/><linearGradient id="m" x1="36.15" y1="162.19" x2="36.15" y2="183.48" xlink:href="#a"/></defs><g data-name="Layer 3"><path opacity=".6" fill="url(#b)" d="M591.72 53.7 405.43 239.99h-216.6L374.4 54.41l217.32-.71z"/><path fill="url(#c)" d="M590.55 97.42 364.59 323.39h-108.8L481.23 97.95l109.32-.53z"/><path fill="none" stroke="#1c7d91" stroke-miterlimit="10" stroke-width="1.78" d="m325.64 187.54 41.09-41.09"/><path fill="none" stroke="#1f54aa" stroke-linecap="round" stroke-linejoin="round" stroke-width="2.52" d="m242.58 138.79 24.34-19.69"/><path d="M264.5 113c0 1.57.21 2.61 2.26 3.92s1.37 2.9.93 3.34-2.26 1.16-3.94-2c-1.11-2.1-4-1.07-3.81-.53s1.47.29 2.65 3.53 5.56 3.7 7.75 1.52a4.38 4.38 0 0 0-.35-6.47c-2-1.67-2.64-3.14-2.25-4s-3.24.69-3.24.69Z" fill="#0091da"/><path fill="none" stroke="#1f54aa" stroke-linecap="round" stroke-linejoin="round" stroke-width="2.52" d="m266.92 119.1 22.25 19.69"/><path fill="none" stroke="#1c7d91" stroke-miterlimit="10" stroke-width="1.78" d="M473.45 196.19h77.48v44.72h-77.48z"/><path fill="none" stroke="#1c7d91" stroke-miterlimit="10" stroke-width="1.78" d="M473.45 204.05h77.48v29.93h-77.48zm-32.74 36.86h122.55m-89.81-36.86h77.48m-95.04 9.98h95.04M455.89 224h95.04m-95.04 9.98h95.04"/><path fill="none" stroke="#1c7d91" stroke-miterlimit="10" stroke-width="1.78" d="M491.17 183.43h28.63v57.48h-28.63zm0 50.55h28.63"/><path d="M181.15 276.18a68.09 68.09 0 0 1 39.72 12.72v-98.24h-49.16v86.18a70 70 0 0 1 9.44-.66Z" fill="#0091da"/><circle cx="180.31" cy="199.56" r="2.02" fill="#d6f25c"/><path fill="none" stroke="#244076" stroke-miterlimit="10" stroke-width="2.9" d="M171.71 217.35h49.16m-49.16 11.86h49.16m-49.16 11.86h49.16m-49.16 11.86h49.16m-49.16 11.86h49.16"/><path fill="#0091da" d="M241.3 137.51h49.15v119.71H241.3z"/><path fill="#1d428a" d="M241.3 239.85h49.15v17.37H241.3z"/><circle cx="249.9" cy="146.41" r="2.02" fill="#d6f25c"/><path fill="none" stroke="#244076" stroke-miterlimit="10" stroke-width="2.9" d="M241.3 164.2h49.15m-49.15 11.86h49.15m-49.15 11.86h49.15m-49.15 11.86h49.15m-49.15 11.86h49.15M241.3 223.5h49.15"/><path d="M308 273.49a49.08 49.08 0 0 0-49.09 49.08h98.19a49.08 49.08 0 0 0-49.1-49.08Z" fill-rule="evenodd" opacity=".7" fill="url(#d)"/><path fill="none" stroke="#1f54aa" stroke-miterlimit="10" stroke-width="2.52" d="m261.31 103.22-3.91-52.17"/><path d="M380.26 217.69a12.89 12.89 0 1 1-5.32-17.42 12.89 12.89 0 0 1 5.32 17.42Z" fill="#0091da"/><path d="M396.63 311.57h1.35l-25.37-100-6.56 1.66 25 98.58a48.68 48.68 0 0 1 5.58-.24Z" fill="#0091da"/><path d="M444.89 288.89 272.41 46.29l-13.74 7L433 298.49a74.81 74.81 0 0 1 11.89-9.6Z" fill="#0091da"/><path fill="none" stroke="#1f54aa" stroke-miterlimit="10" stroke-width="2.52" d="m271.33 103.65 4.27-53.2"/><path d="M275.82 54.7a10.66 10.66 0 1 1-4.39-14.42 10.66 10.66 0 0 1 4.39 14.42Z" fill="#1f54aa"/><path d="M270.89 52.07a5.07 5.07 0 1 1-2.09-6.85 5.08 5.08 0 0 1 2.09 6.85Zm1.27 53.53a6.43 6.43 0 1 1-2.65-8.7 6.42 6.42 0 0 1 2.65 8.7Z" fill="#0091da"/><path fill="#0091da" d="M272.01 113.48h-11.04l-.91-11.3h12.85l-.9 11.3z"/><path d="M396.63 311.57a47.28 47.28 0 0 1 22.59 5.71 74.29 74.29 0 0 1 140.38 34H349.75a47.54 47.54 0 0 1 46.88-39.71Z" fill-rule="evenodd" fill="url(#e)" opacity=".7"/><path d="M366.7 81.88h63.9v17.69h-63.9Zm0 41.49h63.9v-17.69h-63.9Zm0 23.8h63.9v-17.68h-63.9Zm2.84-47.6v6.11m58.23-6.11v6.11m-58.23 17.69v6.12m58.23-6.12v6.12" fill="none" stroke="#1c7d91" stroke-miterlimit="10" stroke-width="1.78"/><circle cx="179.89" cy="92.84" r="44.67" fill="none" stroke="#1c7d91" stroke-miterlimit="10" stroke-width="1.78"/><path d="M135.84 85.26S154.9 101.2 196.37 101m-37.5-22.71s-14.44.74-23 5.44" fill="none" stroke="#1c7d91" stroke-miterlimit="10" stroke-width="1.78"/><path d="M204 54.64a44.69 44.69 0 0 1-40.61 63.3h-1.12" fill="none" stroke="#1c7d91" stroke-miterlimit="10" stroke-width="1.78"/><path d="M208.11 128.15a59.32 59.32 0 0 1-7.76-4 60.31 60.31 0 0 1-23.8-76" fill="none" stroke="#1c7d91" stroke-miterlimit="10" stroke-width="1.78"/><path d="M172.45 69.93a60.4 60.4 0 0 1 51.15 26.94M205.26 113a83.41 83.41 0 0 1 3 13.77" fill="none" stroke="#1c7d91" stroke-miterlimit="10" stroke-width="1.78"/><circle cx="204.33" cy="55.49" r="3.34" fill="#1c7d91"/><circle cx="198.29" cy="100.83" r="3.08" fill="#1c7d91"/><circle cx="162.31" cy="117.78" r="3.44" fill="#1c7d91"/><circle cx="170.61" cy="69.98" r="3.29" fill="#1c7d91"/><circle cx="224.22" cy="97.99" r="3.34" fill="#1c7d91"/><circle cx="135" cy="84.57" r="4.1" fill="#1c7d91"/><circle cx="158.87" cy="78.29" r="2.66" fill="#1c7d91"/><circle cx="205.26" cy="112.99" r="2.66" fill="#1c7d91"/><circle cx="207.67" cy="127.83" r="3.41" fill="#1c7d91"/><circle cx="455.89" cy="55.41" r="14.91" fill="none" stroke="#1c7d91" stroke-miterlimit="10" stroke-width="1.78"/><path fill="none" stroke="#1c7d91" stroke-miterlimit="10" stroke-width="1.78" d="M330.58 55.59h116.57"/><circle cx="455.89" cy="55.59" r="8.55" fill="none" stroke="#1c7d91" stroke-miterlimit="10" stroke-width="1.78"/><circle cx="322.03" cy="55.59" r="8.55" fill="none" stroke="#1c7d91" stroke-miterlimit="10" stroke-width="1.78"/><path fill="none" stroke="#1c7d91" stroke-miterlimit="10" stroke-width="1.78" d="M455.89 70.32v170.59"/><circle cx="322.03" cy="240.91" r="11.62" fill="none" stroke="#1c7d91" stroke-miterlimit="10" stroke-width="1.78"/><path fill="none" stroke="#1c7d91" stroke-miterlimit="10" stroke-width="1.78" d="M322.03 229.29v-33.22"/><circle cx="322.03" cy="191.15" r="4.89" fill="none" stroke="#1c7d91" stroke-miterlimit="10" stroke-width="1.78"/><circle cx="550.93" cy="171.77" r="10.02" fill="none" stroke="#1c7d91" stroke-miterlimit="10" stroke-width="1.78"/><path fill="none" stroke="#1c7d91" stroke-miterlimit="10" stroke-width="1.78" d="M219.46 162.91h-69.13m61.02-8.12 8.11 8.12-8.11 8.11m24.32-121.33V9.65m8.11 31.93-8.11 8.11-8.11-8.11m252.89 96.16 48.88-48.89m-37.41 48.89h-11.47v-11.47m-41.01 97.26-40.79-40.79v-22.21"/><path fill="none" stroke="#1c7d91" stroke-miterlimit="10" stroke-width="1.78" d="M439.44 212.05v11.48h-11.47"/><path d="M262.77 308.06a43.56 43.56 0 0 0-20.8 5.25 68.38 68.38 0 0 0-129.2 31.25h193.14a43.76 43.76 0 0 0-43.14-36.5Z" fill-rule="evenodd" opacity=".7" fill="url(#f)"/><path d="M181.15 276.18a68.47 68.47 0 0 1 16.12 1.92h23.6v-2.9h-49.16v1.64a70 70 0 0 1 9.44-.66Z" fill="#1d428a"/><path d="M118.11 164.39s-4-3.86-4.19-3.86h-7.71l.89 1.56 3.86.81 1.48 2.64a3.63 3.63 0 0 0 2.43 1.77l1 .21Z" fill="#f1d2b6"/><path d="m99.23 209.23-13.34-3.93c.81-2.78 2.94-10 5.24-17.33a7.2 7.2 0 1 0-14-2.95l-4.11 27.17s13.17 6 25.35 3.2Z" fill="url(#g)"/><path d="m102.32 176.46 30.68 1.83a5.82 5.82 0 0 1 5.46 6.15s-11.52 6.71-32.28 7.16c-18.58.4-3.86-15.14-3.86-15.14Z" fill="#00c1d5"/><path d="M91.07 178.8s2.68-4.29.79-11.11c-2.09-7.53 9.92 1.48 9.92 1.48v9.65Z" fill="#f1d2b6"/><path d="M100 173.86c4.5 0 8.19-1.88 8.2-6.39v-5.2a8.21 8.21 0 0 0-8.17-8.2 8.21 8.21 0 0 0-8.2 8.17v5.2c.03.56 3.7 6.41 8.17 6.42Z" fill="#f1d2b6"/><path d="M107.72 157.94c1.31-1.43.52-1.81-1.23-2.63-2-.95-4.33-2.31-7.26-2.32a8.17 8.17 0 0 0-8.23 7.36 23.54 23.54 0 0 0 1 7.72h5.2a4.15 4.15 0 0 0 3.66-2.19l.21-.38c-.31-2.89 1-5 3.25-3l1.71-4Z" fill="#08786b"/><path d="M107.73 159.41a2.56 2.56 0 0 0 1.41-2.58c-.09-1.35-1.29-2.25-3.11-2.42-1.38-.12-2.19-1.09-4.22-1.55a9.08 9.08 0 0 0-6.49 1c-2.12 1 5.09 3.52 5.09 3.52l8 .24Z" fill="#1f2049"/><path d="m112.5 223.11-.32 43.89-.63 35.28a3.9 3.9 0 0 0 1.67 3.35l3.21 2.22a3.91 3.91 0 0 1 1.68 3.2h-16L100 268.81l-7.45-45.7Z" fill="url(#a)"/><path d="m101 222.05-4.58 46.86-3.59 33.39c-.22 1.54.53 2.39 1.67 3.35l2.12 2a4.69 4.69 0 0 1 1.48 3.43H83.41l.59-89.39Z" fill="url(#h)"/><path d="M81.12 179.16a390.22 390.22 0 0 1 2.92 44h28.46l-.35-32.77a13 13 0 0 0-13-13l-8-1.78Z" fill="#00c1d5"/><path d="m102.43 174.54 1 3.59c-4.64.15-15.27.3-15.27.3l2.76-4.67Z" fill="#00c1d5"/><path d="m111.51 161-21.64.73s-1-9.1 7.73-11.38c7.52-2 11 3.61 11 3.61l1.06 4.48 1.9 1.67Z" fill="#ec7700"/><path fill="#0091da" d="M16.88 310.68h130.48v9.83H16.88z"/><path d="M136.33 314.85v37.46l-33.69-35.49v-2h-3.82v37.62L65.13 317v-2.13H61.3v37.77l-33.69-35.51v-2.28h-3.82v83.27h3.82v-36.35l33.69 35.49v.86h3.83v-36.51l33.69 35.49v1h3.82v-36.64L136.33 397v1.17h3.83v-83.32Zm-1.9 40.58h-31.79V322Zm-37.66 0H65.13V322.1Zm-37.66 0h-31.5v-33.17ZM29.81 359H61.3v33.17Zm37.66 0h31.35v33Zm37.66 0h31.2v32.86Z" fill="url(#i)"/><path d="M118.11 164.39s16.28 11.84 19.54 16.68c-6.15 5.51-9.27 4.78-9.27 4.78l-12.9-17.78Z" fill="#00c1d5"/><path d="M54.8 221.69a192.92 192.92 0 0 1 8.59 42.2s-1.63 14.35-.24 26c.69 5.67 1.26 9.28 1.67 11.48a7.1 7.1 0 0 0 3.1 4.67l2.71 1.78a3.88 3.88 0 0 1 1.65 2.75v.37H57.89l.06-5.67a21.72 21.72 0 0 0-.39-4.26L54 282.88a24.75 24.75 0 0 1-.76-8.78l.83-8.63-12.46-23.05a51 51 0 0 1-1.38-20.68l6.38-10.17Z" fill="url(#j)"/><path d="m47.05 226.72 2.8 39.28s-4.65 12.25-4.75 23.87a73.86 73.86 0 0 0 .77 12.64 6.08 6.08 0 0 0 2.8 4.17l1.81 1.12a3.35 3.35 0 0 1 1.29 2.75v.37h-14.9l1.42-10.38-2.47-17.65a24.71 24.71 0 0 1 .37-8.78l2.81-8.64-6.39-22.72c-2.92-8.89-2.63-13.54.74-21.11l6.79-10.07Z" fill="url(#k)"/><path d="M34 174.45s4.53 8.25-.73 12.15c2.37 1.28 11.5 2.39 11.5 2.39L44 177.36Z" fill="#f2c4a5"/><path d="M35.89 173.73c1 5.08 3.37 7.44 8.91 6.81 4.77-.55 5.52-4.72 5.05-10.14-.62-7.22-4.37-8-8.4-7.26s-6.52 5.5-5.56 10.59Z" fill="#f2c4a5"/><circle cx="41.58" cy="171.07" r="8.27" fill="#f2c4a5"/><path d="M49.17 162.27s5.25 8.84-6.72 9.37a6.68 6.68 0 0 1-.87 3.35s0 3.22-6.13 3.22c-4.77-3.59-6-10.82-2.07-14.58 6.23-5.93 15.79-1.36 15.79-1.36Z" fill="url(#l)"/><path d="M56.72 181.25s7.9 13.91 9.19 16.5 2.23 8 2.23 8l-9.31-3.84-5-20.11Z" fill="#f2c4a5"/><path d="M50.19 183.6S33.94 186 30.33 187s-6.07 10.12-2.46 15.74 6.11 15.06 5.45 18.92l21.48.05c-1.32-4.68-.32-32.83-.32-32.83Z" fill="#ec7700"/><path d="m68.14 205.71-18-22.11a9.61 9.61 0 0 0-3.44 11.51c3.58 10.07 18.43 16.27 18.43 16.27Z" fill="#ec7700"/><path d="m49.19 174.69 4.81 1.13 2.71 5.43-2.16 1.34a2.35 2.35 0 0 1-2.91-.34l-1.56-1.56.93-3.54-2.86-1.15Z" fill="#f2c4a5"/><path d="M32.47 164.69c-4.89 6.38-2.46 16.7-1.9 18.91 7.59 1.23 12.26-.65 12.26-.65l-1.25-8-6.88-6.92Z" fill="url(#m)"/><ellipse cx="42.77" cy="173.32" rx="2.08" ry="2.72" transform="rotate(-10.76 42.766 173.233)" fill="#f2c4a5"/><path fill="#ec7700" d="m64.85 194.67-4.36 1.62 2.47 3.04 4.56-1.36-2.67-3.3zm1.35 3.7-3.24 1 5.18 6.38s-.3-5.11-1.94-7.38Z"/></g></svg>