<svg data-name="Layer 1" xmlns="http://www.w3.org/2000/svg" xmlns:xlink="http://www.w3.org/1999/xlink" width="563.97" height="290.99"><defs><linearGradient id="b" x1="475.27" y1="52.25" x2="259.62" y2="267.9" gradientUnits="userSpaceOnUse"><stop offset=".17" stop-color="#0091da" stop-opacity="0"/><stop offset=".39" stop-color="#0091da" stop-opacity=".15"/><stop offset=".64" stop-color="#0091da" stop-opacity=".29"/><stop offset=".85" stop-color="#0091da" stop-opacity=".37"/><stop offset="1" stop-color="#0091da" stop-opacity=".4"/></linearGradient><linearGradient id="a" x1="398.68" y1="17.32" x2="398.68" y2="239.43" gradientUnits="userSpaceOnUse"><stop offset="0" stop-color="#00c1d5" stop-opacity="0"/><stop offset=".16" stop-color="#00c1d5" stop-opacity=".22"/><stop offset=".5" stop-color="#00c1d5" stop-opacity=".7"/><stop offset=".59" stop-color="#00c1d5" stop-opacity=".6"/><stop offset=".78" stop-color="#00c1d5" stop-opacity=".34"/><stop offset="1" stop-color="#00c1d5" stop-opacity="0"/></linearGradient><linearGradient id="c" x1="223.18" y1="17.32" x2="223.18" y2="239.43" xlink:href="#a"/><linearGradient id="d" x1="66.88" y1="-30.31" x2="286.06" y2="188.87" gradientUnits="userSpaceOnUse"><stop offset="0" stop-color="#00c1d5"/><stop offset=".64" stop-color="#45d2e0" stop-opacity="0"/></linearGradient><linearGradient id="e" x1="324.78" y1="99.41" x2="324.78" y2="8.85" gradientTransform="matrix(1 0 0 -1 0 292)" gradientUnits="userSpaceOnUse"><stop offset="0" stop-color="#0091da"/><stop offset=".19" stop-color="#028bd4"/><stop offset=".46" stop-color="#0979c2"/><stop offset=".77" stop-color="#135ca5"/><stop offset="1" stop-color="#1d428a"/></linearGradient><linearGradient id="f" x1="295.65" y1="137.65" x2="329.44" y2="103.85" gradientTransform="matrix(1 0 0 -1 0 292)" gradientUnits="userSpaceOnUse"><stop offset=".28" stop-color="#fff"/><stop offset="1" stop-color="#00c1d5"/></linearGradient></defs><path d="m372.19 68-15.65 15.69a81.23 81.23 0 0 1 71.1 75.51H281L156.58 283.65h174.58l215.89-215.9Z" fill="url('#b')"/><path d="M332.24 84.29a81.56 81.56 0 0 1 67.6 18.71l88.64-88.64-151.69.34-27.92 27.93a97.85 97.85 0 0 1 23.37 41.66Z" opacity=".7" fill="url('#a')"/><path opacity=".7" fill="url('#c')" d="m192.3 159.2-89.58 89.58h151.35l89.58-89.58H192.3z"/><path d="M404 106.86a81.59 81.59 0 0 0-71.76-22.57 98.32 98.32 0 0 0-190.64 3.65h-13.89a71.25 71.25 0 0 0-71.27 71.25h371.2A81.09 81.09 0 0 0 404 106.86Z" fill-rule="evenodd" fill="url('#d')" opacity=".74"/><path d="M278.95 96.83h66.1v186.96h-66.1z"/><circle cx="186.59" cy="135.53" r="9.61" fill="none" stroke="#49afd9" stroke-linecap="round" stroke-linejoin="round" stroke-width="1.62"/><path fill="none" stroke="#49afd9" stroke-linecap="round" stroke-linejoin="round" stroke-width="1.62" d="M196.2 135.53h80.32"/><circle cx="202.91" cy="65.23" r="27.21" fill="none" stroke="#49afd9" stroke-linecap="round" stroke-linejoin="round" stroke-width="1.62"/><path d="M176.07 60.61s11.61 9.71 36.88 9.57" fill="none" stroke="#49afd9" stroke-linecap="round" stroke-linejoin="round" stroke-width="1.62"/><path d="M190.1 56.36s-8.79.45-14 3.31" fill="none" stroke="#0091da" stroke-linecap="round" stroke-linejoin="round" stroke-width="1.62"/><path d="M217.62 42a27.24 27.24 0 0 1-24.74 38.57h-.68" fill="none" stroke="#49afd9" stroke-linecap="round" stroke-linejoin="round" stroke-width="1.62"/><path d="M220.1 86.74a38.37 38.37 0 0 1-4.73-2.43A36.75 36.75 0 0 1 200.87 38" fill="none" stroke="#49afd9" stroke-linecap="round" stroke-linejoin="round" stroke-width="1.62"/><path d="M198.37 51.27a36.81 36.81 0 0 1 31.17 16.41" fill="none" stroke="#49afd9" stroke-linecap="round" stroke-linejoin="round" stroke-width="1.62"/><path d="M218.36 77.5a50.23 50.23 0 0 1 1.83 8.39" fill="none" stroke="#0091da" stroke-linecap="round" stroke-linejoin="round" stroke-width="1.62"/><circle cx="217.8" cy="42.47" r="2.04" fill="#49afd9" stroke="#49afd9" stroke-linecap="round" stroke-linejoin="round" stroke-width="1.62"/><circle cx="214.12" cy="70.09" r="1.88" fill="#49afd9" stroke="#49afd9" stroke-linecap="round" stroke-linejoin="round" stroke-width="1.62"/><circle cx="192.2" cy="80.42" r="2.09" fill="#49afd9" stroke="#49afd9" stroke-linecap="round" stroke-linejoin="round" stroke-width="1.62"/><circle cx="197.26" cy="51.3" r="2.01" fill="#49afd9" stroke="#49afd9" stroke-linecap="round" stroke-linejoin="round" stroke-width="1.62"/><circle cx="229.92" cy="68.37" r="2.03" fill="#49afd9" stroke="#49afd9" stroke-linecap="round" stroke-linejoin="round" stroke-width="1.62"/><circle cx="175.56" cy="60.19" r="2.5" fill="#49afd9" stroke="#49afd9" stroke-linecap="round" stroke-linejoin="round" stroke-width="1.62"/><circle cx="190.1" cy="56.36" r="1.62" fill="#49afd9" stroke="#49afd9" stroke-linecap="round" stroke-linejoin="round" stroke-width="1.62"/><circle cx="218.36" cy="77.5" r="1.62" fill="#49afd9" stroke="#49afd9" stroke-linecap="round" stroke-linejoin="round" stroke-width="1.62"/><circle cx="219.84" cy="86.54" r="2.08" fill="#49afd9" stroke="#49afd9" stroke-linecap="round" stroke-linejoin="round" stroke-width="1.62"/><path d="M67.69 52.54h49.94v13.82H67.69Zm0 32.43h49.94V71.15H67.69Zm0 18.6h49.94V89.75H67.69Zm2.21-37.21v4.79m45.51-4.79v4.79M69.9 84.97v4.78m45.51-4.78v4.78" fill="none" stroke="#49afd9" stroke-linecap="round" stroke-linejoin="round" stroke-width="1.62"/><circle cx="145.63" cy="92.7" r="11.65" fill="none" stroke="#49afd9" stroke-linecap="round" stroke-linejoin="round" stroke-width="1.62"/><circle cx="84.79" cy="130.01" r="11.65" fill="none" stroke="#49afd9" stroke-linecap="round" stroke-linejoin="round" stroke-width="1.62"/><path fill="none" stroke="#49afd9" stroke-linecap="round" stroke-linejoin="round" stroke-width="1.62" d="M42.53 130.15h35.43m67.67-95.2v45.93m-38.3 39.06v20.6a36.21 36.21 0 0 0 25.23 34.51 36.21 36.21 0 0 0 25.23-34.51v-20.6Zm25.23 55.11v-55.11"/><circle cx="84.79" cy="130.15" r="6.68" fill="none" stroke="#49afd9" stroke-linecap="round" stroke-linejoin="round" stroke-width="1.62"/><circle cx="35.85" cy="130.15" r="6.68" fill="none" stroke="#49afd9" stroke-linecap="round" stroke-linejoin="round" stroke-width="1.62"/><circle cx="145.63" cy="27.53" r="7.41" fill="none" stroke="#49afd9" stroke-linecap="round" stroke-linejoin="round" stroke-width="1.62"/><circle cx="84.79" cy="189.45" r="7.41" fill="none" stroke="#49afd9" stroke-linecap="round" stroke-linejoin="round" stroke-width="1.62"/><path stroke-width="1.62" stroke="#49afd9" stroke-linecap="round" stroke-linejoin="round" fill="none" d="M213.49 109.6h32.89v80.1h-32.89z"/><circle cx="219.25" cy="115.55" r="1.35" fill="none" stroke="#49afd9" stroke-linecap="round" stroke-linejoin="round" stroke-width="1.62"/><path fill="none" stroke="#49afd9" stroke-linecap="round" stroke-linejoin="round" stroke-width="1.62" d="M213.49 127.46h32.89m-32.89 7.93h32.89m-32.89 7.94h32.89m-32.89 7.94h32.89m-32.89 7.93h32.89m-32.89 7.94h32.89m-32.89 7.93h32.89m-93.33-73.37 26.9 26.9m-95.16 13.06v39.82"/><circle cx="105.67" cy="27.53" r="1.66" fill="none" stroke="#49afd9" stroke-linecap="round" stroke-linejoin="round" stroke-width="1.62"/><circle cx="46.54" cy="58.02" r="1.66" fill="none" stroke="#49afd9" stroke-linecap="round" stroke-linejoin="round" stroke-width="1.62"/><circle cx="18.23" cy="86.74" r="1.66" fill="none" stroke="#49afd9" stroke-linecap="round" stroke-linejoin="round" stroke-width="1.62"/><circle cx="115.41" cy="186.37" r="1.66" fill="none" stroke="#49afd9" stroke-linecap="round" stroke-linejoin="round" stroke-width="1.62"/><circle cx="46.54" cy="173.67" r="1.66" fill="none" stroke="#49afd9" stroke-linecap="round" stroke-linejoin="round" stroke-width="1.62"/><circle cx="249.48" cy="87.36" r="1.66" fill="none" stroke="#49afd9" stroke-linecap="round" stroke-linejoin="round" stroke-width="1.62"/><path fill="#1a428a" d="M272.86 96.83h6.26v186.96h-6.26z"/><path d="m296.05 192.59-5.62 40.1a85.52 85.52 0 0 0-.75 15l1 27a4 4 0 0 1-1.73 3.46l-3.33 2.31a4 4 0 0 0-1.73 3.31h16.53V242l18.94-49.41Z" fill="#0091da"/><path d="m325 192.59.92 43.65a81.5 81.5 0 0 1 7.81 12.06c3 6 11.36 27.51 11.36 27.51l-12.75 7.34a3.88 3.88 0 0 1-.26-3.68l1.89-4.16a3.9 3.9 0 0 0-.27-3.7l-18.92-29.43s-10.31-40.3-10.31-49.59Z" fill="url('#e')"/><path d="M314.19 149.21s-2.47-5.07.4-12.41c3.18-8.11-11.17.5-11.17.5l-1.08 10.7Z" fill="#daa873"/><path d="M304.82 142.71c-5-.51-8.86-3-8.36-8l.59-5.76a9.15 9.15 0 0 1 10-8.16 9.15 9.15 0 0 1 8.16 10l-.59 5.77c-.06.6-4.8 6.65-9.8 6.15Z" fill="#daa873"/><path d="M297.94 125.8c-1.28-1.73-.19-3.7 1.85-4.41 2.36-.81 5.06-2.07 8.31-1.74a9.13 9.13 0 0 1 8.3 9.11 26.22 26.22 0 0 1-2 8.45l-8.07-4.27.33-4.09a2.9 2.9 0 0 0-2.65-3.13 2.94 2.94 0 0 0-.42 0l-5.69.08Z" fill="#006fb1"/><ellipse cx="309.39" cy="134.37" rx="2.96" ry="2.2" transform="rotate(-84.22 309.39 134.365)" fill="#daa873"/><path d="m296.83 155.08-9.06 21.66-16.56 8.45 2.32 5.83 18.28-5.81s13.55-10.42 16.18-20.13c3.06-11.27-11.16-10-11.16-10Z" fill="#00c1d5"/><path d="M325 145.86v46.73h-28.95v-32.92a13.8 13.8 0 0 1 13.79-13.81H325Z" fill="url('#f')"/><path d="m339 176-14-30.13s-12-1-14.36 9c0 0 9.82 10.66 21 23.11Z" fill="#fff"/><path d="M339 197.86V176l-8.82-5.68v11.25c0 7.45 2.93 16.3 2.93 16.3Z" fill="#fff" fill-rule="evenodd"/><path d="M333.11 197.86v8.67l7.52-1.13s.83-5.35-2.61-7.54Zm-61.9-12.67-8.15 3.28 3.92 6.62s5.32-1.24 6.08-5.3Z" fill="#daa873"/><path fill="#fff" d="m314.75 141.63-9.35 2.52-2.98 3.05.24-2.33-1.02.26-.93 4.73 16.27-3.31-2.23-4.92z"/><path d="m265.83 189.88-.87-3.71 4.16-1.62a1.79 1.79 0 0 1 2.31 1l.76 2Zm69.5 14.9-3.76-.74v-4.42a1.78 1.78 0 0 1 1.8-1.76h2.13Z" fill="#daa873"/><path fill="#1a428a" fill-rule="evenodd" d="m342.5 96.83 42-18.77v205.73h-42V96.83z"/><path fill="#1f92cc" d="M384.5 78.06h6.93v205.73h-6.93z"/></svg>